<?xml version="1.0" encoding="utf-8"?>
<!-- Generator: Adobe Illustrator 25.2.3, SVG Export Plug-In . SVG Version: 6.00 Build 0)  -->
<svg version="1.1" id="Layer_1" xmlns="http://www.w3.org/2000/svg" xmlns:xlink="http://www.w3.org/1999/xlink" x="0px" y="0px"
	 viewBox="0 0 4100 2100" style="enable-background:new 0 0 4100 2100;" xml:space="preserve">
<style type="text/css">
	.st0{fill-rule:evenodd;clip-rule:evenodd;fill:#F9F9F9;}
	.st1{fill-rule:evenodd;clip-rule:evenodd;fill:#F0F0F0;}
	.st2{fill-rule:evenodd;clip-rule:evenodd;fill:#C2C2FA;}
	.st3{fill-rule:evenodd;clip-rule:evenodd;fill:#442F86;}
	.st4{fill-rule:evenodd;clip-rule:evenodd;fill:url(#SVGID_1_);}
	.st5{fill-rule:evenodd;clip-rule:evenodd;fill:#9186DD;}
	.st6{fill-rule:evenodd;clip-rule:evenodd;fill:#BBD1F5;}
	.st7{fill-rule:evenodd;clip-rule:evenodd;fill:url(#SVGID_2_);}
</style>
<g>
	<g>
		<rect x="584.55" y="271.3" class="st0" width="308.51" height="1566.38"/>
		<rect x="1081.61" y="275.79" class="st0" width="308.51" height="1566.38"/>
		<rect x="2149.98" y="257.83" class="st0" width="308.51" height="1566.38"/>
		<rect x="1664.36" y="262.32" class="st0" width="308.51" height="1566.38"/>
		<rect x="2647.03" y="262.32" class="st0" width="308.52" height="1566.38"/>
		<rect x="3206.93" y="262.32" class="st0" width="308.52" height="1566.38"/>
	</g>
	<g>
		<g>
			<g>
				<path class="st1" d="M1789.92,858.07h-19.08c-13.08,0-23.68,10.6-23.68,23.68v38.36c0,13.08-10.6,23.68-23.68,23.68h-116.24
					c-13.08,0-23.68-10.6-23.68-23.68v-38.36c0-13.08-10.6-23.68-23.68-23.68h-211.96c-13.08,0-23.68-10.6-23.68-23.68v-76.09
					c0-4.81,1.46-9.5,4.2-13.46l200.91-290.89c4.42-6.4,11.7-10.22,19.48-10.22h116.27c18.9,0,30.18,21.05,19.72,36.79
					l-139.66,210.02c-10.46,15.74,0.82,36.79,19.72,36.79c13.08,0,23.68-10.6,23.68-23.68v-29.08c0-13.08,10.6-23.68,23.68-23.68
					h111.23c13.08,0,23.68,10.6,23.68,23.68v29.08c0,13.08,10.6,23.68,23.68,23.68h19.08c13.08,0,23.68,10.6,23.68,23.68v83.37
					C1813.6,847.46,1803,858.07,1789.92,858.07z"/>
				<path class="st1" d="M1946.11,924.14c-34.06-20.72-60.72-50.72-80.01-90.01c-19.28-39.29-28.93-86.08-28.93-140.37
					c0-54.29,9.65-101.08,28.93-140.37c19.29-39.29,45.96-69.29,80.01-90.01c34.04-20.72,73.22-31.08,117.52-31.08
					c44.29,0,83.45,10.36,117.51,31.08c34.05,20.72,60.72,50.72,80.01,90.01c19.29,39.29,28.93,86.08,28.93,140.37
					c0,54.29-9.64,101.08-28.93,140.37c-19.29,39.29-45.96,69.29-80.01,90.01c-34.06,20.72-73.22,31.08-117.51,31.08
					C2019.33,955.22,1980.15,944.86,1946.11,924.14L1946.11,924.14z M2120.77,693.76L2120.77,693.76
					c0-84.3-19.05-126.44-57.14-126.44c-38.11,0-57.15,42.15-57.15,126.44c0,84.29,19.04,126.44,57.15,126.44
					C2101.72,820.2,2120.77,778.05,2120.77,693.76z"/>
				<path class="st1" d="M2792.88,858.07h-19.08c-13.08,0-23.68,10.6-23.68,23.68v38.36c0,13.08-10.6,23.68-23.68,23.68h-116.23
					c-13.08,0-23.68-10.6-23.68-23.68v-38.36c0-13.08-10.6-23.68-23.68-23.68H2350.9c-13.08,0-23.68-10.6-23.68-23.68v-76.09
					c0-4.81,1.46-9.5,4.2-13.46l200.91-290.89c4.42-6.4,11.7-10.22,19.48-10.22h116.27c18.9,0,30.18,21.05,19.72,36.79
					l-139.66,210.02c-10.47,15.74,0.82,36.79,19.72,36.79c13.08,0,23.68-10.6,23.68-23.68v-29.08c0-13.08,10.6-23.68,23.68-23.68
					h111.23c13.08,0,23.68,10.6,23.68,23.68v29.08c0,13.08,10.6,23.68,23.68,23.68h19.08c13.08,0,23.68,10.6,23.68,23.68v83.37
					C2816.56,847.46,2805.96,858.07,2792.88,858.07z"/>
			</g>
			<g>
				<path class="st2" d="M1749.11,855.51h-19.08c-13.08,0-23.68,10.6-23.68,23.68v38.36c0,13.08-10.6,23.68-23.68,23.68h-116.24
					c-13.08,0-23.68-10.6-23.68-23.68v-38.36c0-13.08-10.6-23.68-23.68-23.68h-211.96c-13.08,0-23.68-10.6-23.68-23.68v-76.09
					c0-4.81,1.46-9.5,4.2-13.46l200.91-290.89c4.42-6.4,11.7-10.22,19.48-10.22h116.27c18.9,0,30.18,21.05,19.72,36.79
					l-139.66,210.02c-10.47,15.74,0.82,36.79,19.72,36.79c13.08,0,23.68-10.6,23.68-23.68v-29.08c0-13.08,10.6-23.68,23.68-23.68
					h111.23c13.08,0,23.68,10.6,23.68,23.68v29.08c0,13.08,10.6,23.68,23.68,23.68h19.08c13.08,0,23.68,10.6,23.68,23.68v83.37
					C1772.79,844.91,1762.18,855.51,1749.11,855.51z"/>
				<path class="st2" d="M1905.3,921.59c-34.06-20.71-60.72-50.72-80.01-90.01c-19.28-39.29-28.93-86.08-28.93-140.37
					s9.65-101.08,28.93-140.37c19.29-39.29,45.96-69.29,80.01-90.01c34.04-20.72,73.22-31.08,117.52-31.08
					c44.29,0,83.45,10.36,117.51,31.08c34.05,20.71,60.72,50.72,80.01,90.01c19.29,39.29,28.93,86.08,28.93,140.37
					s-9.64,101.08-28.93,140.37c-19.29,39.29-45.96,69.29-80.01,90.01c-34.06,20.72-73.22,31.08-117.51,31.08
					C1978.52,952.67,1939.34,942.31,1905.3,921.59L1905.3,921.59z M2079.96,691.21L2079.96,691.21
					c0-84.29-19.05-126.44-57.14-126.44c-38.11,0-57.15,42.15-57.15,126.44c0,84.3,19.04,126.44,57.15,126.44
					C2060.91,817.65,2079.96,775.5,2079.96,691.21z"/>
				<path class="st2" d="M2752.07,855.51h-19.08c-13.08,0-23.68,10.6-23.68,23.68v38.36c0,13.08-10.6,23.68-23.68,23.68H2569.4
					c-13.08,0-23.68-10.6-23.68-23.68v-38.36c0-13.08-10.6-23.68-23.68-23.68h-211.95c-13.08,0-23.68-10.6-23.68-23.68v-76.09
					c0-4.81,1.46-9.5,4.2-13.46l200.91-290.88c4.42-6.4,11.7-10.22,19.48-10.22h116.27c18.9,0,30.18,21.05,19.72,36.79
					l-139.66,210.02c-10.47,15.74,0.82,36.79,19.72,36.79c13.08,0,23.68-10.6,23.68-23.68v-29.08c0-13.08,10.6-23.68,23.68-23.68
					h111.23c13.08,0,23.68,10.6,23.68,23.68v29.08c0,13.08,10.6,23.68,23.68,23.68h19.08c13.08,0,23.68,10.6,23.68,23.68v83.37
					C2775.75,844.91,2765.15,855.51,2752.07,855.51z"/>
			</g>
		</g>
		<g>
			<g>
				<g>
					<path class="st3" d="M925.78,1248.75c73.25,0,133.84-23.5,183.68-70.92c59.61-56.72,94.11-137.34,127.47-215.3
						c37.71-88.13,73.33-171.37,138.39-192.19c28.66-9.17,54.73-6.09,79.7,9.45c109.77,68.31,151.37,340.26,151.77,342.99
						l37.09-5.52c-1.77-11.88-44.72-291.94-169.05-369.31c-34.39-21.4-71.72-25.88-110.94-13.32
						c-81.36,26.05-120.26,116.93-161.43,213.15c-63.98,149.52-130.14,304.14-360.41,253.61l-111.4-36.04
						c-9.85-3.19-20.42,2.22-23.61,12.07c-3.19,9.85,2.22,20.43,12.08,23.61l113.96,36.79
						C866.02,1245.1,896.89,1248.75,925.78,1248.75z"/>
				</g>
				<linearGradient id="SVGID_1_" gradientUnits="userSpaceOnUse" x1="1807.8418" y1="1208.5011" x2="1506.9104" y2="1277.9766">
					<stop  offset="0" style="stop-color:#60B0E2"/>
					<stop  offset="1" style="stop-color:#916EB0"/>
				</linearGradient>
				<path class="st4" d="M1559.5,1433.96l-39.91-193.49c-13.78-66.82,25.14-133.25,90.16-153.9c72.75-23.11,150,19.49,169.27,93.35
					l48.97,187.67L1559.5,1433.96z"/>
				<path class="st5" d="M1559.58,1439.08c4.29,17.81,68.63,17.58,143.72-0.51c75.08-18.09,132.47-47.18,128.19-64.99
					c-4.29-17.81-68.63-17.58-143.72,0.51C1612.69,1392.18,1555.3,1421.28,1559.58,1439.08z"/>
				<path class="st3" d="M1721.71,1386.59c-1.08,6.01,9.66,12.96,23.99,15.54c14.33,2.57,26.82-0.21,27.9-6.22
					c1.08-6.01-9.66-12.96-23.99-15.54C1735.28,1377.79,1722.79,1380.58,1721.71,1386.59z"/>
				<path class="st3" d="M1627.09,1415.6c-1.08,6.01,9.66,12.97,23.99,15.54c14.33,2.57,26.82-0.21,27.9-6.22
					c1.08-6.01-9.66-12.96-23.99-15.54C1640.66,1406.81,1628.17,1409.59,1627.09,1415.6z"/>
				<path class="st6" d="M1679.74,1109.24c0,0,57.9,21.05,76.32,81.58c18.42,60.53,34.21,138.16,34.21,138.16l-52.63,1.32
					L1679.74,1109.24z"/>
				<polygon class="st3" points="1628.76,1040.66 1600.8,1089.51 1637.64,1080.95 				"/>
			</g>
			<g>
				<g>
					<path class="st3" d="M3318.26,989.56l-14.91,33.15c-2.59-1.16-64.16-29.73-120.68-130.33c-16.34-29.08-41.4-63.1-67.99-59.96
						c-19.07,2.25-69.65,29.34-127.17,231.78c-62.72,220.76-196.87,365-398.72,428.72c-130.64,41.24-292.2-46.78-299.01-50.55
						l17.59-31.81c2.03,1.12,155.01,84.15,270.48,47.7c189.46-59.81,315.53-195.73,374.7-403.99
						c47.34-166.61,98.98-250.98,157.87-257.94c37.32-4.41,72.28,21.93,103.94,78.26C3265.09,964.86,3317.73,989.32,3318.26,989.56
						L3318.26,989.56z M2307.37,1410.55C2307.36,1410.55,2307.36,1410.55,2307.37,1410.55l-8.79,15.91L2307.37,1410.55
						L2307.37,1410.55z"/>
				</g>
				<g>
					<path class="st3" d="M1970.06,1278.3l95.75,69.38c8,5.8,9.79,16.99,3.99,24.99c-5.8,8-16.99,9.79-24.99,3.99l-95.75-69.38
						c-8-5.8-9.79-16.99-3.99-24.98C1950.88,1274.28,1962.06,1272.5,1970.06,1278.3z"/>
				</g>
				<g>
					<path class="st3" d="M2043.92,1172.01l95.75,69.38c8,5.8,9.79,16.98,3.99,24.99c-5.8,8-16.98,9.79-24.99,3.99l-95.75-69.38
						c-8-5.8-9.79-16.98-3.99-24.98C2024.74,1168,2035.92,1166.21,2043.92,1172.01z"/>
				</g>
				<polygon class="st3" points="2378.93,1448.12 2319.5,1456.97 2335.95,1423.84 2392.13,1445.97 				"/>
				<linearGradient id="SVGID_2_" gradientUnits="userSpaceOnUse" x1="2121.8237" y1="1495.4974" x2="2257.3435" y2="1142.4561">
					<stop  offset="0" style="stop-color:#60B0E2"/>
					<stop  offset="1" style="stop-color:#916EB0"/>
				</linearGradient>
				<path class="st7" d="M1977.35,1377.58l165.64,107.68c57.2,37.18,133.24,25.16,176.18-27.86
					c48.03-59.32,36.52-146.79-25.24-191.65l-156.91-114L1977.35,1377.58z"/>
				<path class="st6" d="M2032.89,1385.46l38.13-51.6l195.64,140.92c0,0-46.89,23.36-100.87-2.88
					C2111.8,1445.66,2032.89,1385.46,2032.89,1385.46z"/>
			</g>
		</g>
		<path class="st3" d="M1450.68,1713.08c21.6,0,32.08-10.8,32.08-23.42c0-27.76-43.96-18.13-43.96-32.08c0-4.77,4-8.66,14.37-8.66
			c6.7,0,13.93,1.94,20.95,5.94l5.4-13.28c-7.02-4.43-16.74-6.7-26.24-6.7c-21.49,0-31.86,10.69-31.86,23.56
			c0,28.08,43.96,18.36,43.96,32.51c0,4.63-4.21,8.08-14.58,8.08c-9.07,0-18.58-3.24-24.95-7.87l-5.94,13.16
			C1426.59,1709.52,1438.69,1713.08,1450.68,1713.08z"/>
		<path class="st3" d="M1521.2,1712.65c18.47,0,31.86-12.42,31.86-29.92c0-17.5-13.39-29.92-31.86-29.92
			c-18.47,0-31.97,12.42-31.97,29.92C1489.23,1700.23,1502.73,1712.65,1521.2,1712.65L1521.2,1712.65z M1521.2,1698.83
			c-8.42,0-14.9-6.05-14.9-16.09c0-10.04,6.48-16.09,14.9-16.09c8.42,0,14.8,6.05,14.8,16.09
			C1536,1692.78,1529.63,1698.83,1521.2,1698.83z"/>
		<path class="st3" d="M1580.39,1661.35v-7.67h-16.09v58.11h16.85v-27.43c0-11.12,6.16-16.2,15.44-16.2c1.3,0,2.38,0.11,3.78,0.22
			v-15.55C1591.41,1652.82,1584.49,1655.73,1580.39,1661.35z"/>
		<path class="st3" d="M1626.51,1661.35v-7.67h-16.09v58.11h16.85v-27.43c0-11.12,6.16-16.2,15.45-16.2c1.3,0,2.38,0.11,3.78,0.22
			v-15.55C1637.53,1652.82,1630.61,1655.73,1626.51,1661.35z"/>
		<path class="st3" d="M1700.06,1653.68l-16.42,39.42l-16.31-39.42h-17.39l25.17,58.54l-0.22,0.54c-2.27,5.18-4.86,7.24-9.5,7.24
			c-3.35,0-6.91-1.4-9.5-3.67l-6.16,11.99c3.78,3.35,10.26,5.29,16.2,5.29c10.48,0,18.47-4.21,24.09-18.25l26.24-61.67H1700.06z"/>
		<path class="st3" d="M1726.2,1691.7c-5.94,0-10.48,4.1-10.48,10.37c0,4.43,2.27,7.78,5.83,9.18l-4.75,17.17h10.69l6.16-15.55
			c2.48-5.94,2.92-7.99,2.92-10.8C1736.57,1695.91,1732.25,1691.7,1726.2,1691.7z"/>
		<path class="st3" d="M1812.5,1636.18h-32.73v75.6h17.5v-20.85h15.23c20.2,0,32.83-10.48,32.83-27.32
			C1845.33,1646.66,1832.69,1636.18,1812.5,1636.18L1812.5,1636.18z M1811.52,1676.68h-14.26v-26.25h14.26
			c10.69,0,16.09,4.86,16.09,13.18C1827.62,1671.82,1822.22,1676.68,1811.52,1676.68z"/>
		<path class="st3" d="M1879.46,1652.82c-9.29,0-18.68,2.48-25.06,7.02l6.05,11.77c4.21-3.35,10.59-5.4,16.74-5.4
			c9.07,0,13.39,4.21,13.39,11.45h-13.39c-17.71,0-24.95,7.13-24.95,17.39c0,10.04,8.1,17.61,21.71,17.61
			c8.53,0,14.58-2.81,17.71-8.1v7.24h15.77v-33.16C1907.43,1661.02,1897.17,1652.82,1879.46,1652.82L1879.46,1652.82z
			 M1878.16,1701.31c-5.94,0-9.5-2.81-9.5-7.02c0-3.89,2.48-6.8,10.37-6.8h11.56v5.94
			C1888.64,1698.72,1883.78,1701.31,1878.16,1701.31z"/>
		<path class="st3" d="M1967.27,1653.68v7.45c-4.43-5.62-11.12-8.32-19.22-8.32c-16.09,0-29.05,11.12-29.05,28.08
			c0,16.96,12.96,28.08,29.05,28.08c7.56,0,13.93-2.38,18.36-7.24v2.48c0,10.48-5.19,15.88-17.07,15.88
			c-7.45,0-15.55-2.59-20.52-6.59l-6.7,12.1c6.8,5.29,17.5,7.99,28.51,7.99c20.95,0,32.62-9.94,32.62-31.54v-48.39H1967.27
			L1967.27,1653.68z M1951.39,1695.15c-8.86,0-15.34-5.72-15.34-14.26c0-8.53,6.48-14.26,15.34-14.26c8.86,0,15.23,5.72,15.23,14.26
			C1966.62,1689.43,1960.25,1695.15,1951.39,1695.15z"/>
		<path class="st3" d="M2055.83,1682.95c0-18.68-13.18-30.13-30.24-30.13c-17.71,0-31,12.53-31,29.92
			c0,17.28,13.07,29.92,33.16,29.92c10.48,0,18.58-3.24,23.98-9.4l-8.96-9.72c-4,3.78-8.42,5.62-14.58,5.62
			c-8.86,0-15.01-4.43-16.63-11.66h43.96C2055.62,1686.08,2055.83,1684.25,2055.83,1682.95L2055.83,1682.95z M2025.7,1665.56
			c7.56,0,13.07,4.75,14.26,12.1h-28.62C2012.52,1670.21,2018.03,1665.56,2025.7,1665.56z"/>
		<polygon class="st3" points="2150.88,1636.18 2150.88,1682.09 2113.29,1636.18 2098.82,1636.18 2098.82,1711.79 2116.1,1711.79 
			2116.1,1665.88 2153.79,1711.79 2168.16,1711.79 2168.16,1636.18 		"/>
		<path class="st3" d="M2212.55,1712.65c18.47,0,31.86-12.42,31.86-29.92c0-17.5-13.39-29.92-31.86-29.92s-31.97,12.42-31.97,29.92
			C2180.58,1700.23,2194.08,1712.65,2212.55,1712.65L2212.55,1712.65z M2212.55,1698.83c-8.42,0-14.9-6.05-14.9-16.09
			c0-10.04,6.48-16.09,14.9-16.09s14.8,6.05,14.8,16.09C2227.35,1692.78,2220.97,1698.83,2212.55,1698.83z"/>
		<path class="st3" d="M2288.58,1697.1c-1.84,1.4-4.32,2.16-6.8,2.16c-4.54,0-7.24-2.7-7.24-7.67v-23.65h14.47v-12.96h-14.47v-14.15
			h-16.85v14.15h-8.96v12.96h8.96v23.87c0,13.82,7.99,20.85,21.71,20.85c5.18,0,10.26-1.19,13.72-3.67L2288.58,1697.1z"/>
		<polygon class="st3" points="2391.51,1650.22 2391.51,1636.18 2334.38,1636.18 2334.38,1711.79 2351.88,1711.79 2351.88,1684.25 
			2386.87,1684.25 2386.87,1670.21 2351.88,1670.21 2351.88,1650.22 		"/>
		<path class="st3" d="M2428.35,1712.65c18.47,0,31.86-12.42,31.86-29.92c0-17.5-13.39-29.92-31.86-29.92
			c-18.47,0-31.97,12.42-31.97,29.92C2396.38,1700.23,2409.88,1712.65,2428.35,1712.65L2428.35,1712.65z M2428.35,1698.83
			c-8.43,0-14.9-6.05-14.9-16.09c0-10.04,6.48-16.09,14.9-16.09c8.42,0,14.8,6.05,14.8,16.09
			C2443.14,1692.78,2436.77,1698.83,2428.35,1698.83z"/>
		<path class="st3" d="M2513.13,1653.68v28.73c0,10.69-5.62,15.66-13.39,15.66c-7.45,0-11.77-4.32-11.77-14.04v-30.35h-16.85v32.83
			c0,17.93,10.26,26.14,24.84,26.14c7.13,0,13.61-2.7,18.04-7.78v6.91h15.98v-58.11H2513.13z"/>
		<path class="st3" d="M2580.96,1652.82c-7.89,0-14.69,2.7-19.23,7.67v-6.8h-16.09v58.11h16.85v-28.73
			c0-10.69,5.83-15.66,13.93-15.66c7.45,0,11.77,4.32,11.77,13.72v30.67h16.85v-33.27
			C2605.04,1660.81,2594.67,1652.82,2580.96,1652.82z"/>
		<path class="st3" d="M2663.26,1631.65v28.19c-4.21-4.75-10.26-7.02-17.39-7.02c-16.42,0-29.05,11.66-29.05,29.92
			c0,18.25,12.64,29.92,29.05,29.92c7.78,0,13.93-2.48,18.15-7.56v6.7h16.09v-80.14H2663.26L2663.26,1631.65z M2648.78,1698.83
			c-8.42,0-14.91-6.05-14.91-16.09c0-10.04,6.48-16.09,14.91-16.09c8.32,0,14.8,6.05,14.8,16.09
			C2663.58,1692.78,2657.1,1698.83,2648.78,1698.83z"/>
	</g>
</g>
</svg>
