<?xml version="1.0" encoding="utf-8"?>
<!-- Generator: Adobe Illustrator 25.2.3, SVG Export Plug-In . SVG Version: 6.00 Build 0)  -->
<svg version="1.1" xmlns="http://www.w3.org/2000/svg" xmlns:xlink="http://www.w3.org/1999/xlink" x="0px" y="0px"
	 viewBox="0 0 2666.67 2000" style="enable-background:new 0 0 2666.67 2000;" xml:space="preserve">
<style type="text/css">
	.st0{opacity:0;fill:#FFFFFF;}
	.st1{fill:#F6F9FF;}
	.st2{fill:#7EB5FF;}
	.st3{fill:#E2EEFE;}
	.st4{fill:#62A2E8;}
	.st5{fill:#231F20;}
	.st6{fill:#C7E6F9;}
	.st7{fill:#89C6F4;}
	.st8{fill:#BDDDF9;}
	.st9{fill:#E57E25;}
	.st10{fill:#F3CF3F;}
	.st11{opacity:0.15;}
	.st12{fill:#E64C3C;}
	.st13{fill:#CC3429;}
	.st14{fill:#16A085;}
	.st15{fill:#B29664;}
	.st16{fill:#CCB079;}
	.st17{fill:#DBC287;}
	.st18{fill:#AA8E5C;}
	.st19{fill:#3B97D3;}
	.st20{fill:#2980B9;}
	.st21{fill:#196893;}
	.st22{fill:#8E44AD;}
	.st23{fill:#C1A46B;}
	.st24{fill:#CEB27A;}
	.st25{fill:#BFA26F;}
	.st26{fill:#AF915D;}
	.st27{fill:#D8E9FD;}
	.st28{fill:#0A0265;}
	.st29{fill:#FEB3B0;}
	.st30{fill:#FF9D9A;}
	.st31{fill:#F29C1F;}
	.st32{fill:#AD947D;}
	.st33{fill:#BDA488;}
</style>
<g id="BACKGROUND">
	<rect x="0" class="st0" width="2666.67" height="2000"/>
</g>
<g id="OBJECTS">
	<g>
		<g>
			<g>
				<path class="st1" d="M540.39,1216.55c0,0,489.77-1314.78,1266.23-1027.62s292.16,1489.97,292.16,1489.97l176.22,55.88v62.34
					H464.87L540.39,1216.55z"/>
			</g>
			<g>
				<ellipse class="st2" cx="1333.33" cy="1798.29" rx="1077.09" ry="60.32"/>
			</g>
			<g>
				<path class="st3" d="M432.51,1656.12c2.4-10.05-40.76-1002.47,389.6-1142.8s14.67,624.67,123.02,703.23
					s368.26-631.95,638.68-720.38s468.13,88.5,465.3,257.17c-2.84,168.67,0,981.43,0,981.43L432.51,1656.12z"/>
			</g>
			<g>
				<g>
					<path class="st4" d="M1392.33,511.14c0,0-1.23-34.23-39.19-28.4C1353.14,482.73,1354.42,522.98,1392.33,511.14z"/>
				</g>
				<g>
					<path class="st4" d="M1428.81,556.54c0,0-29-18.22-45.52,16.44C1383.29,572.98,1417.3,594.55,1428.81,556.54z"/>
				</g>
				<g>
					<path class="st4" d="M1470.02,529.16c0,0-32.41-11.07-40.52,26.47C1429.51,555.63,1467.56,568.79,1470.02,529.16z"/>
				</g>
				<g>
					<path class="st4" d="M1503.2,588.2c0,0-32.41-11.07-40.52,26.47C1462.68,614.67,1500.74,627.83,1503.2,588.2z"/>
				</g>
				<g>
					<path class="st4" d="M1529.06,652.57c0,0-32.41-11.07-40.52,26.47C1488.54,679.04,1526.6,692.2,1529.06,652.57z"/>
				</g>
				<g>
					<path class="st4" d="M1550.33,718.63c0,0-32.41-11.07-40.52,26.47C1509.81,745.1,1547.86,758.26,1550.33,718.63z"/>
				</g>
				<g>
					<path class="st4" d="M1567.81,789.66c0,0-32.41-11.07-40.52,26.47C1527.29,816.13,1565.34,829.3,1567.81,789.66z"/>
				</g>
				<g>
					<path class="st4" d="M1462.7,614.84c0,0-29-18.22-45.52,16.44C1417.18,631.28,1451.18,652.85,1462.7,614.84z"/>
				</g>
				<g>
					<path class="st4" d="M1488.95,678.36c0,0-29-18.22-45.52,16.44C1443.43,694.81,1477.43,716.37,1488.95,678.36z"/>
				</g>
				<g>
					<path class="st4" d="M1509.74,744.47c0,0-29-18.22-45.52,16.44C1464.22,760.92,1498.23,782.48,1509.74,744.47z"/>
				</g>
				<g>
					<path class="st4" d="M1526.81,815.8c0,0-29-18.22-45.52,16.44C1481.29,832.24,1515.3,853.81,1526.81,815.8z"/>
				</g>
				<g>
					<path class="st5" d="M1544.43,937.94c-0.07-0.77-6.93-77.79-29.2-168.41c-20.54-83.55-58.75-196.07-124.16-257.66l1.61-1.71
						c29.09,27.39,55.29,66.93,77.88,117.53c18.05,40.43,33.85,87.97,46.96,141.31c22.31,90.79,29.19,167.97,29.25,168.73
						L1544.43,937.94z"/>
				</g>
			</g>
			<g>
				<g>
					<path class="st6" d="M1697.05,728.37c0,0,7.63-358.38,64.25-426.71c56.62-68.33,125.63,39.56,92.92,106.09
						c-32.71,66.53-57.38,320.62-57.38,320.62H1697.05z"/>
				</g>
				<g>
					<path class="st5" d="M1747.17,728.41l-2.35-0.07c3.56-124,60.08-380.3,60.65-382.87l2.29,0.51
						C1807.2,348.55,1750.73,604.63,1747.17,728.41z"/>
				</g>
			</g>
			<g>
				<g>
					<path class="st7" d="M1629.34,789.44c0,0,24.91-236.98-20.81-353.86c-45.72-116.88-196.59-249.94-102.28-289.5
						c94.32-39.56,184.09,181.61,210.23,284.11s14.13,231.74-20.32,366.71L1629.34,789.44z"/>
				</g>
				<g>
					<path class="st5" d="M1668.71,793.97l-2.28-0.55c36.4-151.89,7.98-297.63-22.27-393.14c-32.79-103.53-74.74-172-75.16-172.68
						l2-1.23c0.42,0.68,42.5,69.35,75.38,173.14c19.31,60.96,31.73,121.94,36.9,181.25
						C1689.74,654.92,1684.84,726.65,1668.71,793.97z"/>
				</g>
			</g>
			<g>
				<g>
					<path class="st4" d="M1581.69,834.2c0,0,16.43-309.57-169.89-428.24s323.86-186.82,250.38,410.97L1581.69,834.2z"/>
				</g>
				<g>
					<path class="st5" d="M1631.75,823.73l-2.35-0.06c3.97-165.6-40.18-275.97-77.91-339.39c-40.88-68.71-83.25-98.65-83.67-98.95
						l1.34-1.93c0.43,0.3,43.13,30.46,84.27,99.55c24.14,40.55,43.05,86.39,56.21,136.26
						C1626.07,681.53,1633.51,750.34,1631.75,823.73z"/>
				</g>
			</g>
			<g>
				<g>
					<path class="st8" d="M812.62,1331.56c0,0-86.42-271.79-34.87-303.5c51.55-31.71,50.73,135.52,108.98,121.73
						c58.25-13.79-54.05-300.89,0-338.05c54.05-37.16,74.43,112.92,125.98,114.6c51.55,1.68,58.74-417.89,206.19-369.94
						c147.45,47.95-166.63,406.38-131.86,437.55c34.76,31.17,128.76-73.79,162.14-42.49c33.38,31.3-254,193.18-239.24,219.73
						c14.76,26.55,156.94-54.31,169.4-27.9c12.46,26.41-203.12,160.47-211.85,200.96L812.62,1331.56z"/>
				</g>
				<g>
					<path class="st5" d="M887.89,1337.79l-2.32-0.33c15.32-109.57,314.28-701.81,317.3-707.78l2.1,1.06
						C1201.94,636.71,903.16,1228.6,887.89,1337.79z"/>
				</g>
			</g>
			<g>
				<g>
					<path class="st4" d="M726.89,1323.01c0,0-94.79-150.62-75.91-207.47c18.88-56.85,53.05,54.88,80.02,55.66
						s-66.53-183.1-35.96-219.73c30.57-36.63,48.55,58.19,87.21,54.83c38.66-3.35-83.61-289.26,27.87-277.57
						c111.48,11.69,22.48,246.35,47.65,265.23c25.17,18.88,79.12-109.69,114.18-57.54c35.06,52.15-133.96,191.7-122.27,206.88
						c11.69,15.19,74.2-33.69,95.3-7.29c21.1,26.4-107.89,150.14-106.09,187.01H726.89z"/>
				</g>
				<g>
					<path class="st5" d="M788.86,1323.26l-2.29-0.51c27.6-123.72,34.29-520.89,34.36-524.89l2.35,0.04
						C823.21,801.9,816.52,1199.31,788.86,1323.26z"/>
				</g>
			</g>
			<g>
				<g>
					<path class="st9" d="M1650.18,677.29c0,0,252.29-227.27,360.84,36.64c108.55,263.91-10.87,731.21-411.12,592.41"/>
				</g>
				<g>
					<path class="st10" d="M1787.65,1264.31c-35.64,23.45-161.29,67.63-278.5,23.83c-16.12-6.02-32.08-13.71-47.62-23.35
						c-19.91-12.35-39.13-27.88-57.13-47.19c-22.43-24.06-35.01-50.52-40.41-77.92c-8.42-42.61,0.55-87.48,16.87-129.03
						c35.99-91.66,107.78-167.28,107.78-167.28s265.49-372.34,389.65-132.83C2002.45,950.08,1834.48,1233.51,1787.65,1264.31z"/>
				</g>
				<g class="st11">
					<g>
						<path class="st5" d="M1808.59,799.37c3.61-1.77,6.98-3.62,9.78-5.49L1808.59,799.37z"/>
					</g>
					<g>
						<path class="st5" d="M1760.39,1178.95c-6.74,5.88-13.44,11.13-20.06,15.83c16.27,12.5,30.26,18.48,30.26,18.48
							c-24.02-0.4-35.59-6.73-40.87-11.34c-10.99,6.97-21.62,12.48-31.65,16.82l16.53,30.06l-22.61-27.51
							c-23.95,9.55-43.79,12.59-55.36,13.86c-14.93,1.63-39.47,17.6-61.74,30.22c4.82,10.19,15.17,22.68,37.27,26.2
							c0,0-9.51,6.15-44.99-21.91c-7.01,3.77-13.63,6.98-19.45,9c-9.14,3.19-23.65,6.5-38.58,9.47
							c-16.12-6.02-32.08-13.71-47.62-23.35c-19.91-12.35-39.13-27.88-57.13-47.19c-22.43-24.06-35.01-50.52-40.41-77.92
							c-0.47-32.9,7.69-66.32,20.06-97.84c30.07-23.16,62.06-47.9,62.06-47.9s20.93-32.95,47.29-69.52
							c-0.18-13.84-0.05-31.46-0.05-31.46l4.91,24.77c20.88-28.58,44.46-58.28,63.55-75.46c7.96-7.17,16.35-14.19,25.05-20.79
							c2.25-12.08,4.28-37.09,4.28-37.09l2.57,32.06c39.2-28.04,84.04-45.94,124.76-27.61c0,0,31.14,15.07,49.59,38.31
							c0.82,1.03,1.69,2.11,2.59,3.23c6.8-2.25,19.98-6.89,30.89-12.24l-28.05,15.76c14.34,17.78,35.93,45.79,45.34,90.89
							c12.02-4.62,31.53-14.19,45-31.14c-0.22,0.81-7.98,27.11-42.75,43.89c2.18,15,3.03,31.72,1.94,50.36
							c-0.65,11.06-1.29,21.56-2.02,31.56c10.59-4.4,33.75-13.99,44.96-18.59c-0.74,0.56-24.37,18.8-45.79,29.33
							C1814.63,1097.42,1803.83,1141.02,1760.39,1178.95z"/>
					</g>
				</g>
			</g>
			<g>
				<g>
					<path class="st12" d="M1930.8,1295.12H572.92c-8.03,0-14.54,6.51-14.54,14.54v90.5c0,8.03,6.51,14.54,14.54,14.54H1930.8
						c8.03,0,14.54-6.51,14.54-14.54v-90.5C1945.34,1301.63,1938.83,1295.12,1930.8,1295.12z"/>
				</g>
				<g>
					<rect x="558.38" y="1311.16" class="st13" width="1386.97" height="3.52"/>
				</g>
				<g>
					<rect x="558.38" y="1398.02" class="st13" width="1386.97" height="3.52"/>
				</g>
			</g>
			<g>
				<g>
					<path class="st14" d="M1945.34,1431.49c0,4.64-1.88,8.83-4.92,11.87c-3.04,3.04-7.23,4.92-11.87,4.92H488.84
						c-9.26,0-16.77-7.51-16.77-16.79c0-4.64,1.88-8.83,4.92-11.87c3.03-3.04,7.23-4.92,11.86-4.92h1439.72
						C1937.83,1414.71,1945.34,1422.22,1945.34,1431.49z"/>
				</g>
				<g>
					<path class="st14" d="M1945.34,1618.2c0,4.64-1.88,8.83-4.92,11.87c-3.04,3.04-7.23,4.92-11.87,4.92H488.84
						c-9.26,0-16.77-7.51-16.77-16.79c0-4.62,1.88-8.83,4.92-11.86c3.03-3.04,7.23-4.92,11.86-4.92h1439.72
						C1937.83,1601.42,1945.34,1608.94,1945.34,1618.2z"/>
				</g>
				<g>
					<path class="st15" d="M1902.18,1448.28c0,0-4.62,8.42-9.34,22.37H515.76c-2.71-7.29-6.06-14.77-10.13-22.37H1902.18z"/>
				</g>
				<g>
					<path class="st16" d="M1890.07,1479.58l-551.9,9.77l547.95,6.9c-0.72,3.78-1.34,7.72-1.84,11.81H524.84
						c-1.37-11.77-4.21-24.31-9.09-37.41h1377.08C1891.91,1473.42,1890.98,1476.4,1890.07,1479.58z"/>
				</g>
				<g>
					<path class="st16" d="M1886.74,1562.23H521.48c1.4-5.73,2.57-11.98,3.36-18.7h1358.88
						C1884.31,1549.65,1885.28,1555.89,1886.74,1562.23z"/>
				</g>
				<g>
					<path class="st17" d="M1883.72,1543.53H524.84c1.26-10.73,1.49-22.64,0-35.47h1359.43
						C1882.93,1519.03,1882.51,1531.01,1883.72,1543.53z"/>
				</g>
				<g>
					<path class="st17" d="M1902.18,1601.42H505.63c0,0,3.37-5.04,7.36-14.09l427.8-7.2l-422.07-8.03c0.97-3.09,1.91-6.39,2.77-9.88
						h1365.25C1889.7,1575.12,1894.61,1588.34,1902.18,1601.42z"/>
				</g>
				<g>
					<rect x="1892.84" y="1469.23" class="st5" width="1.87" height="2.85"/>
				</g>
				<g>
					<polygon class="st5" points="1883.73,1544.96 1883.72,1544.96 1883.72,1542.11 					"/>
				</g>
				<g>
					<polygon class="st5" points="1886.75,1563.66 1886.74,1563.66 1886.74,1560.81 					"/>
				</g>
				<g>
					<path class="st16" d="M940.78,1580.14l-427.8,7.2c1.87-4.23,3.87-9.33,5.73-15.22L940.78,1580.14z"/>
				</g>
				<g>
					<path class="st18" d="M1890.07,1479.58c-1.46,5.08-2.82,10.67-3.96,16.67l-547.95-6.9L1890.07,1479.58z"/>
				</g>
			</g>
			<g>
				<g>
					<rect x="368.67" y="1634.98" class="st19" width="1576.67" height="162.13"/>
				</g>
				<g>
					<rect x="368.67" y="1634.98" class="st20" width="1576.67" height="21.14"/>
				</g>
				<g>
					<rect x="368.67" y="1775.98" class="st20" width="1576.67" height="21.14"/>
				</g>
				<g>
					<rect x="673.46" y="1654.95" class="st21" width="1144.81" height="2.35"/>
				</g>
				<g>
					<rect x="432.51" y="1774.8" class="st21" width="1449.3" height="2.35"/>
				</g>
			</g>
			<g>
				<g>
					<path class="st22" d="M1993.29,329.38v1453.8c0,7.7-6.24,13.93-13.93,13.93h-20.08c-7.7,0-13.93-6.24-13.93-13.93V329.38
						c0-7.7,6.24-13.93,13.93-13.93h20.08C1987.06,315.45,1993.29,321.69,1993.29,329.38z"/>
				</g>
				<g>
					<path class="st22" d="M2275,330.13v1452.3c0,8.11-6.57,14.68-14.68,14.68h-18.58c-8.11,0-14.68-6.57-14.68-14.68V330.13
						c0-8.11,6.57-14.68,14.68-14.68h18.58C2268.43,315.45,2275,322.02,2275,330.13z"/>
				</g>
				<g>
					<path class="st23" d="M2200.68,1759.95h-15.59c0-7.2,4.8-622.76,4.8-622.76L2200.68,1759.95z"/>
				</g>
				<g>
					<rect x="1993.29" y="345.72" class="st24" width="35.96" height="1414.23"/>
				</g>
				<g>
					<rect x="2029.26" y="345.72" class="st25" width="17.01" height="1414.23"/>
				</g>
				<g>
					<rect x="2046.27" y="345.72" class="st17" width="52.52" height="1414.23"/>
				</g>
				<g>
					<polygon class="st16" points="2158.72,345.72 2158.72,1759.95 2098.78,1759.95 2098.78,345.72 2121.55,345.72 2121.55,751.3 
						2137.14,345.72 					"/>
				</g>
				<g>
					<polygon class="st26" points="2137.14,345.72 2121.55,751.3 2121.55,345.72 					"/>
				</g>
				<g>
					<path class="st17" d="M2227.05,345.72v1414.23h-26.38l-10.79-622.76c0,0-4.8,615.57-4.8,622.76h-26.38V345.72H2227.05z"/>
				</g>
			</g>
			<g>
				<g>
					<g>
						<g>
							<path class="st2" d="M588.73,941.47l-3.66-0.72c0,0,0.51-2.58,1.53-7.32l3.64,0.78C589.23,938.9,588.73,941.46,588.73,941.47
								z"/>
						</g>
					</g>
					<g>
						<g>
							<path class="st2" d="M593.45,919.83l-3.63-0.84c1.09-4.72,2.24-9.57,3.42-14.43l3.62,0.88
								C595.68,910.29,594.54,915.13,593.45,919.83z M600.43,891.09l-3.61-0.92c1.16-4.55,2.4-9.34,3.73-14.34l3.6,0.96
								C602.82,881.78,601.58,886.56,600.43,891.09z M608.01,862.53l-3.59-0.99c1.28-4.62,2.62-9.38,4.02-14.25l3.58,1.03
								C610.62,853.18,609.28,857.92,608.01,862.53z M616.19,834.14l-3.57-1.07c1.39-4.64,2.83-9.37,4.33-14.16l3.56,1.11
								C619.01,824.8,617.57,829.52,616.19,834.14z M624.98,805.95l-3.54-1.15c1.53-4.72,3.1-9.45,4.66-14.06l3.53,1.19
								C628.07,796.53,626.51,801.24,624.98,805.95z M634.44,777.98l-3.51-1.24c1.65-4.67,3.33-9.36,5.02-13.93l3.5,1.29
								C637.76,768.66,636.08,773.33,634.44,777.98z M644.63,750.28l-3.48-1.34c1.79-4.65,3.61-9.29,5.42-13.79l3.46,1.39
								C648.23,741.02,646.42,745.64,644.63,750.28z M655.64,722.92l-3.43-1.45c1.93-4.58,3.91-9.16,5.88-13.61l3.41,1.51
								C659.53,713.8,657.56,718.36,655.64,722.92z M667.6,695.94l-3.38-1.58c2.12-4.53,4.27-9.03,6.41-13.36l3.34,1.65
								C671.85,686.97,669.7,691.44,667.6,695.94z M858.14,689.22l-2.04-3.12c2.45-1.6,5.44-5.47,8.42-10.87l3.26,1.8
								C864.42,683.13,861.18,687.23,858.14,689.22z M846.86,678.98c-1.07-4.08-1.87-9.09-2.4-14.87l3.71-0.33
								c0.5,5.58,1.27,10.38,2.29,14.26L846.86,678.98z M680.65,669.52l-3.3-1.73c2.33-4.45,4.7-8.84,7.05-13.05l3.25,1.82
								C685.32,660.74,682.96,665.1,680.65,669.52z M874.06,663.4l-3.47-1.36c1.7-4.35,3.29-9,4.71-13.83l3.57,1.05
								C877.42,654.19,875.8,658.95,874.06,663.4z M843.81,649.2l0-0.87c0-4.52,0.15-9.24,0.43-14.03l3.72,0.22
								c-0.28,4.72-0.43,9.36-0.43,13.81l0,0.85L843.81,649.2z M695.02,643.81l-3.2-1.91c2.58-4.32,5.21-8.56,7.82-12.61l3.13,2.02
								C700.18,635.32,697.57,639.53,695.02,643.81z M882.54,634.8l-3.64-0.78c1.03-4.83,1.87-9.67,2.49-14.41l3.69,0.49
								C884.45,624.94,883.59,629.88,882.54,634.8z M849.25,619.9l-3.7-0.43c0.57-4.87,1.27-9.83,2.1-14.73l3.67,0.62
								C850.51,610.21,849.81,615.1,849.25,619.9z M710.97,619.1l-3.05-2.14c2.89-4.13,5.85-8.16,8.79-11.98l2.95,2.27
								C716.76,611.03,713.83,615.01,710.97,619.1z M886.37,605.22l-3.72-0.14c0.07-1.78,0.1-3.56,0.1-5.29
								c0-3.17-0.12-6.29-0.35-9.25l3.71-0.29c0.24,3.06,0.36,6.27,0.36,9.54C886.48,601.57,886.45,603.4,886.37,605.22z
								 M728.9,595.85l-2.83-2.42c3.3-3.86,6.66-7.56,10-11.02l2.68,2.59C735.46,588.4,732.15,592.05,728.9,595.85z M854.15,590.95
								l-3.64-0.81c1.07-4.83,2.28-9.69,3.6-14.43l3.59,0.99C856.4,581.39,855.2,586.18,854.15,590.95z M880.2,576.25
								c-1.2-4.94-2.83-9.47-4.86-13.45l3.32-1.69c2.15,4.24,3.89,9.04,5.16,14.26L880.2,576.25z M749.27,574.86l-2.48-2.78
								c3.8-3.4,7.67-6.58,11.52-9.47l2.23,2.98C756.78,568.41,752.99,571.53,749.27,574.86z M861.98,562.67l-3.53-1.18
								c1.51-4.52,3.15-9.01,4.87-13.38c-2.39-1.81-5-3.34-7.8-4.58l1.5-3.41c4.77,2.11,9.05,5,12.7,8.59l-2.61,2.66
								c-0.25-0.25-0.51-0.5-0.77-0.74C864.8,554.57,863.34,558.61,861.98,562.67z M772.6,557.46l-1.92-3.19
								c4.37-2.62,8.82-4.95,13.25-6.92l1.52,3.4C781.16,552.66,776.84,554.92,772.6,557.46z M799.07,545.67l-1.13-3.55
								c4.98-1.59,9.83-2.9,14.42-3.9l0.79,3.64C808.68,542.84,803.95,544.12,799.07,545.67z M841.84,539.89
								c-4.43-0.54-9.26-0.61-14.36-0.21l-0.29-3.71c5.35-0.42,10.43-0.35,15.1,0.22L841.84,539.89z M872.82,535.42l-3.38-1.57
								c2.11-4.52,4.36-8.99,6.69-13.29l3.27,1.78C877.11,526.57,874.89,530.97,872.82,535.42z M886.8,509.7l-3.15-1.99
								c2.66-4.22,5.47-8.36,8.36-12.32l3.01,2.2C892.18,501.48,889.42,505.55,886.8,509.7z M904.05,486.09l-2.84-2.41
								c3.21-3.8,6.59-7.5,10.04-11l2.66,2.61C910.52,478.73,907.21,482.37,904.05,486.09z M924.54,465.29l-2.45-2.81
								c3.74-3.25,7.64-6.39,11.61-9.33l2.22,2.99C932.03,459.02,928.2,462.1,924.54,465.29z M947.98,447.92l-1.97-3.16
								c4.18-2.61,8.52-5.1,12.92-7.39l1.72,3.3C956.33,442.93,952.07,445.36,947.98,447.92z M973.84,434.43l-1.47-3.42
								c4.51-1.93,9.18-3.73,13.88-5.35l1.21,3.52C982.85,430.77,978.26,432.54,973.84,434.43z M1001.44,424.92l-0.96-3.6
								c4.71-1.26,9.58-2.4,14.47-3.37l0.73,3.65C1010.87,422.56,1006.08,423.68,1001.44,424.92z M1030.1,419.18l-0.51-3.69
								c4.82-0.66,9.78-1.2,14.76-1.59l0.3,3.71C1039.75,418,1034.85,418.53,1030.1,419.18z M1059.29,416.83l-0.1-3.72
								c4.87-0.14,9.82-0.16,14.85-0.06l-0.07,3.72C1069,416.67,1064.1,416.69,1059.29,416.83z"/>
						</g>
					</g>
					<g>
						<g>
							<path class="st2" d="M1095.85,417.91c-2.49-0.21-4.95-0.39-7.39-0.54l0.23-3.72c2.47,0.16,4.96,0.34,7.47,0.55
								L1095.85,417.91z"/>
						</g>
					</g>
				</g>
				<g>
					<g>
						<g>
							<g>
								<path class="st27" d="M1184.41,424.35c0,0,7.95-60,4.39-60.01c-3.56-0.01-8.94,4.3-10.23,18.63
									S1179.55,423.07,1184.41,424.35z"/>
							</g>
						</g>
					</g>
					<g>
						<g>
							<g>
								<path class="st27" d="M1180.57,424.8c0,0-3-60.45-6.5-59.81c-3.5,0.63-8.02,5.84-6.7,20.17
									C1168.68,399.49,1175.55,424.42,1180.57,424.8z"/>
							</g>
						</g>
					</g>
					<g>
						<g>
							<g>
								<path class="st4" d="M1175.83,423.62c-0.17,1.69-14.92,1.6-32.95-0.2c-18.03-1.8-32.51-4.62-32.34-6.31s14.92-1.6,32.95,0.2
									C1161.52,419.11,1176,421.94,1175.83,423.62z"/>
							</g>
						</g>
					</g>
					<g>
						<g>
							<g>
								<path class="st4" d="M1191.82,425.22c-0.3,3.02-5.54,4.97-11.7,4.36s-10.91-3.56-10.61-6.58c0.3-3.02,5.54-4.97,11.7-4.36
									C1187.37,419.25,1192.12,422.2,1191.82,425.22z"/>
							</g>
						</g>
					</g>
					<g>
						<g>
							<g>
								<path class="st4" d="M1199.18,425.34c-0.27,2.69-2.66,4.65-5.35,4.38s-4.65-2.66-4.38-5.35c0.27-2.69,2.66-4.65,5.35-4.38
									C1197.49,420.26,1199.45,422.65,1199.18,425.34z"/>
							</g>
						</g>
					</g>
					<g>
						<g>
							<g>
								<path class="st4" d="M1186.23,424.66c0,0,29.34-52.93,26.04-54.24c-3.31-1.31-9.9,0.73-16.34,13.6
									C1189.49,396.88,1182.16,421.69,1186.23,424.66z"/>
							</g>
						</g>
					</g>
					<g>
						<g>
							<g>
								<path class="st4" d="M1182.48,423.68c0,0,19.32-57.35,15.83-58.05c-3.49-0.69-9.6,2.51-13.62,16.32
									C1180.68,395.76,1177.95,421.49,1182.48,423.68z"/>
							</g>
						</g>
					</g>
				</g>
			</g>
		</g>
		<g>
			<g>
				<path class="st28" d="M1736.58,789.03l-1.5-24.8c0,0,10.34-16.48,6.92-34.83c0,0,13.94,4.13,15.64-28.63
					c1.68-32.76-18.16-25.32-32.12-8.27c0,0-19.76-31-34.84-31.36c-15.09-0.36-35.8,17.25-64.31,15.57c0,0-1.73,0.73-4.35,2.23
					c-7.22,4.11-21.17,13.98-23.91,30.02c0,0-5.06-23.74,14.07-38.84c0,0-67.94-97.29,6.49-106.76
					c74.44-9.47,150.22,38.99,151.7,79.17C1770.35,642.55,1787.2,711.99,1736.58,789.03z"/>
			</g>
			<g>
				<path class="st29" d="M1742,729.41c3.42,18.35-6.92,34.83-6.92,34.83c-23.71,31.56-44.13,32.77-60.84,20.31
					c-33.64-25.09-52.23-105.58-52.23-105.58c2.62-1.5,4.35-2.23,4.35-2.23c28.52,1.67,49.22-15.93,64.31-15.57
					c15.08,0.36,34.84,31.36,34.84,31.36c13.96-17.06,33.8-24.5,32.12,8.27C1755.94,733.54,1742,729.41,1742,729.41z"/>
			</g>
			<g>
				<path class="st30" d="M1738.78,825.28c-41.33,17.87-76.6-8.36-76.6-8.36l6.68-17.95l5.37-14.43
					c16.72,12.46,37.13,11.25,60.84-20.31l1.5,24.8l1.47,24.29c0,0,0.01,0,0.01,0.01L1738.78,825.28z"/>
			</g>
			<g>
				<path class="st12" d="M1809.53,1065.83c-46.9,18.68-86.71-3.4-86.71-3.4l-29.06-12.66c0,0-34.12,55.03-44.36,93.52
					l-170.68-101.48c0,0-3.4-10.32-10.23-21.04l56.5-76.05l-21.17-18.38c0,0,48.04-61.71,77.86-92.14
					c29.53-30.15,86.11-35.13,87.17-35.23l-6.68,17.95c0,0,35.27,26.24,76.6,8.36l-0.72-11.95
					C1834.77,890.03,1809.53,1065.83,1809.53,1065.83z"/>
			</g>
			<g>
				<polygon class="st5" points="1668.78,799.55 1668.77,799.55 1668.95,798.39 				"/>
			</g>
			<g>
				<path class="st29" d="M1809.53,1065.83c-35.59,142.02-143.42,150.72-143.42,150.72c-16.4-2.09-32.83-6.47-48.91-12.4
					c-89.45-32.98-167.87-113.88-167.87-113.88s-3.02-1.34-7.8-3.57c-2.77-1.29-6.13-2.89-9.84-4.7
					c-8.42-4.11-18.65-9.31-27.8-14.63c-20.12-11.67-50.82-44.55-49.49-47.43c1.28-2.82,5.52-2.24,5.7-2.21
					c-6.24-7.1-9.62-12.57-8.2-14.76c3.05-4.68,15.9,2.99,16.46,3.33c-8.57-9.85-14.68-19.36-10.05-22.59
					c7.19-5.03,47.98,40.67,53.39,30.11c1.91-3.72-41.89-51.46-36.58-54.74c5.32-3.27,25.81,11.79,47.03,35.43
					c21.23,23.64,25.35,19.2,25.35,19.2l1.07-12.94c2.07,1.09,4.04,2.41,5.91,3.87c5.67,4.45,10.35,10.35,14.02,16.13
					c6.83,10.72,10.23,21.04,10.23,21.04l170.68,101.48c10.24-38.49,44.36-93.52,44.36-93.52l29.06,12.66
					C1722.82,1062.43,1762.63,1084.51,1809.53,1065.83z"/>
			</g>
			<g>
				<path class="st9" d="M1437.5,1136l-25.7-13.31l-76.12-39.4l0.22-43.88l0.63-121.83l90.31,33.88l24.98,9.37l-3.27,39.93l0.01,0
					l-1.07,12.94c0,0-4.13,4.45-25.35-19.2c-21.22-23.64-41.71-38.7-47.03-35.43c-5.31,3.28,38.49,51.02,36.58,54.74
					c-5.41,10.56-46.21-35.14-53.39-30.11c-4.63,3.24,1.49,12.74,10.05,22.59c-0.56-0.34-13.41-8.01-16.46-3.33
					c-1.42,2.19,1.97,7.66,8.2,14.76c-0.19-0.03-4.42-0.6-5.7,2.21c-1.33,2.88,29.37,35.76,49.49,47.43
					c9.15,5.31,19.38,10.52,27.8,14.63c3.71,1.82,7.07,3.41,9.84,4.7l-1.61,19.77l-1.42,17.36L1437.5,1136z"/>
			</g>
			<g>
				<path class="st5" d="M1395.17,1034.42c-0.16-0.14-15.95-13.92-27.42-27.04l-0.06-0.01l-0.29-0.39l1.9-1.38l-0.95,0.69l0.25-1.14
					l0.39,0.08l0.26,0.3c11.38,13.08,27.29,26.97,27.45,27.11L1395.17,1034.42z"/>
			</g>
			<g>
				<path class="st5" d="M1390.77,1048.32c-12.83-10.74-24.33-21.61-31.55-29.82l1.76-1.55c7.14,8.13,18.55,18.91,31.29,29.58
					L1390.77,1048.32z"/>
			</g>
			<g>
				<path class="st5" d="M1368.26,1006.88l-0.38-0.25l0.5-0.37L1368.26,1006.88z M1368.35,1006.29l0.14-0.56L1368.35,1006.29z"/>
			</g>
			<g>
				<polygon class="st5" points="1360.05,1018.31 1360.04,1018.3 1360.16,1017.14 				"/>
			</g>
			<g>
				<path class="st30" d="M1524.99,944.72l-56.5,76.05c-3.67-5.78-8.35-11.69-14.02-16.13l49.35-78.3L1524.99,944.72z"/>
			</g>
			<g>
				<polygon class="st31" points="1426.85,951.46 1336.53,917.58 1428.26,884.78 				"/>
			</g>
			<g>
				<path class="st32" d="M1447.24,1124.59c-2.91-0.29-5.83-0.54-8.75-0.76l1.42-17.36
					C1442.01,1112.04,1444.44,1118.13,1447.24,1124.59z"/>
			</g>
			<g>
				<path class="st12" d="M1617.19,1204.15l-62.01,51.47l-0.08,0.06c-56.03-31.59-89.67-89.1-107.86-131.08
					c-2.8-6.46-5.24-12.55-7.33-18.12l1.61-19.77c4.78,2.23,7.8,3.57,7.8,3.57S1527.75,1171.17,1617.19,1204.15z"/>
			</g>
			<g>
				<path class="st33" d="M1555.11,1255.68c0,0-116.27,67.43-354.24,44.07c0,0-53.89,170.27-169.27,265.08
					c0,0-30.06,6.88-64.11-15.28c0,0,112.99-305.29,153.34-339.45c18.52-15.68,58.97-37.93,111.03-56.04
					c51.86-18.06,115.26-32.04,179.94-31.36c8.88,0.09,17.79,0.46,26.7,1.14c2.92,0.22,5.84,0.47,8.75,0.76
					C1465.44,1166.57,1499.08,1224.08,1555.11,1255.68z"/>
			</g>
			<g>
				<path class="st32" d="M1411.8,1122.69c-64.69-0.68-128.08,13.29-179.94,31.36c0,0-38.81-69.88-55.99-89.31
					c0,0-39.09,96.93-194.98,187.11c0,0-25.09-2.39-53.02-39.72c0,0,207.92-272.15,226.92-282.73
					c34.02-18.95,97.8,11.26,181.12,110.02l-0.22,43.88L1411.8,1122.69z"/>
			</g>
			<g>
				<path class="st29" d="M984.22,1295.94c-5.94,11.86-21.11,7.86-41.71,3.71c-20.61-4.15-97.06-3.1-129.43-5.34
					c-32.39-2.23-26.43-18.33-21.35-20.02c5.09-1.7,89.55-20.42,101.84-25.92c12.29-5.49,34.28-36.24,34.28-36.24
					c27.92,37.33,53.02,39.72,53.02,39.72C976.36,1274.81,990.16,1284.08,984.22,1295.94z"/>
			</g>
			<g>
				<path class="st29" d="M1027.35,1609.03c-2.51,13.26-16.17,19.78-30.07,25.95c-13.91,6.18-64.63,40.95-73.11,43.06
					c-8.49,2.11-28.44-0.16-40.36-1.57c-11.9-1.42-14.02-5.66-14.02-5.66c-3.56-0.51-19.79-5.56-5.11-19.2
					c14.69-13.63,78.56-57.72,86.62-67.47c8.07-9.74,16.19-34.6,16.19-34.6c34.06,22.16,64.11,15.28,64.11,15.28
					C1022.39,1582.57,1029.86,1595.76,1027.35,1609.03z"/>
			</g>
			<g>
				
					<rect x="1678.3" y="1026.88" transform="matrix(0.3271 -0.945 0.945 0.3271 173.2981 2299.4797)" class="st5" width="45.95" height="2.35"/>
			</g>
			<g>
				
					<rect x="1512.1" y="917.22" transform="matrix(0.6129 -0.7902 0.7902 0.6129 -127.4414 1576.6516)" class="st5" width="66.64" height="2.35"/>
			</g>
		</g>
	</g>
</g>
</svg>
